<?xml version="1.0" standalone="no"?>
<!DOCTYPE svg PUBLIC "-//W3C//DTD SVG 20010904//EN"
 "http://www.w3.org/TR/2001/REC-SVG-20010904/DTD/svg10.dtd">
<svg version="1.0" xmlns="http://www.w3.org/2000/svg"
 width="225.000000pt" height="225.000000pt" viewBox="0 0 225.000000 225.000000"
 preserveAspectRatio="xMidYMid meet">
<metadata>
Created by potrace 1.14, written by Peter Selinger 2001-2017
</metadata>
<g transform="translate(0.000000,225.000000) scale(0.100000,-0.100000)"
fill="#000000" stroke="none">
<path d="M718 1960 c-52 -15 -98 -52 -125 -98 -25 -42 -28 -57 -31 -169 l-4
-123 103 -106 104 -105 5 198 5 198 420 0 420 0 5 -122 c5 -102 9 -127 26
-149 45 -60 65 -68 197 -74 l122 -5 0 -525 0 -525 -595 0 -595 0 -3 130 -3
131 -105 104 -105 105 3 -265 3 -265 28 -47 c18 -31 44 -57 75 -75 l47 -28
655 0 655 0 45 25 c49 28 84 73 100 129 6 22 10 258 10 615 l0 579 -114 116
c-62 64 -160 165 -217 224 -57 60 -116 115 -131 123 -22 11 -111 14 -500 13
-260 0 -485 -4 -500 -9z"/>
<path d="M179 1681 c-48 -15 -69 -32 -89 -71 -24 -47 -25 -69 -5 -118 16 -38
101 -132 120 -132 6 0 53 43 105 95 l94 95 -59 60 c-37 37 -73 64 -95 70 -39
11 -36 11 -71 1z"/>
<path d="M970 1543 c-50 -18 -68 -84 -32 -116 16 -15 49 -17 259 -17 220 0
241 2 256 18 18 19 22 68 9 89 -17 27 -69 33 -270 32 -114 0 -214 -3 -222 -6z"/>
<path d="M367 1382 l-97 -98 307 -305 c296 -294 312 -307 398 -351 104 -53
276 -130 281 -126 4 5 -55 138 -115 258 l-52 105 -307 308 c-169 169 -309 307
-312 307 -3 0 -49 -44 -103 -98z m690 -608 l32 -59 -23 -24 -24 -23 -61 32
c-34 18 -61 38 -61 43 0 16 83 97 95 94 6 -2 24 -30 42 -63z"/>
<path d="M950 1183 c0 -4 26 -33 57 -65 l57 -58 361 0 c198 0 365 4 371 8 20
13 35 52 29 72 -16 51 -7 50 -456 50 -230 0 -419 -3 -419 -7z"/>
<path d="M1237 843 l36 -68 253 2 c155 1 260 5 272 12 30 16 37 60 14 90 l-19
26 -296 3 -296 2 36 -67z"/>
<path d="M1342 623 c2 -5 14 -36 27 -71 l24 -63 198 3 c214 3 221 5 234 58 4
18 0 34 -15 53 l-21 27 -226 0 c-123 0 -223 -3 -221 -7z"/>
</g>
</svg>
